<?xml version="1.0" encoding="utf-8"?>
<!-- Generator: Adobe Illustrator 21.1.0, SVG Export Plug-In . SVG Version: 6.00 Build 0)  -->
<svg version="1.1" id="Capa_1" xmlns="http://www.w3.org/2000/svg" xmlns:xlink="http://www.w3.org/1999/xlink" x="0px" y="0px"
	 viewBox="0 0 684 333" style="enable-background:new 0 0 684 333;" xml:space="preserve">
<style type="text/css">
	.st0{fill:#F7F9FF;}
</style>
<g>
	<path class="st0" d="M394.4,213c-47.3,0-94.7,0.1-142-0.1c-4.4,0-5.5,1.1-5.5,5.5c0.2,33.5,0,67,0.2,100.5c0,4.6-1.3,5.4-5.6,5.4
		c-70.2-0.1-140.3-0.3-210.5,0.2c-9.6,0.1-13.2-9.6-10.1-16.2c0.5-1,0.8-2.2,1.4-3.2c4.2-7.5,4.2-7.6-3.4-11.2c-4.2-2-6-5.3-6-9.8
		c0-17-0.1-34,0.1-51c0.1-4.1,1.5-7.6,5.9-10c5.1-2.8,8-8.1,8.1-14c0.1-10.5,0.5-21-1.6-31.3c-0.6-2.8-2.1-4.1-4.9-4.6
		c-5.7-0.9-7.6-3.2-7.6-9.1c-0.1-27.7,0-55.3-0.2-83c-0.1-7.9,4-13.4,8.8-18.8c2-2.2,4.6-2.6,7.6-2.8C41.6,59,54,60.7,66.4,61.6
		c4.1,0.3,7.4-0.6,10.3-3.7c5.4-5.7,11.3-10.7,15.5-17.7c5.8-9.6,12.8-9.9,20.2-2.5c3,3,5.8,4.2,9.9,4.1c7.2-0.3,14.4-0.8,21.5,0.1
		c13.8,1.8,25.4-4,37.1-9.6c2.4-1.1,4.8-2.2,7.3-2.9c5.5-1.6,8.1-0.1,10.5,5.6c0.8,1.8,1.9,3.5,2.7,5.3c2.2,5.4,0.7,8.6-4.8,10.8
		c-3.2,1.3-6.1,3.3-8.9,5.2c-2.7,1.8-2.5,3.8-0.4,5.6c2.4,2,4.9,4,7.6,5.6c4.1,2.5,6.2,5.7,5.5,10.7c-0.3,1.9-0.2,3.9,0.9,5.8
		c0.9,1.5,1.6,2.9,3.7,2.7c2-0.2,3-1.6,3.5-3.2c0.8-2.4,1.1-5.2-0.2-7.3c-2.3-4,0.6-5.7,2.9-7.1c8.1-5,18.8,1.2,19.5,10.6
		c0.7,9.1,1,18.2,0.1,27.3c-0.7,7.1-5.2,9.8-12,8.2c-7-1.7-11.1-5-11.8-12.3c-0.2-1.8-1.9-1.5-3.2-1.6c-2-0.2-3.4,0.3-4.3,2.5
		c-1.5,4.1-0.7,8.2-1,12.3c-0.6,10.4-0.4,10.4,10.1,10.4c24.8,0,49.7,0,74.5,0c2.7,0,4.6,0.4,5.3-3.8c0.5-3.1,4.6-5.2,8.6-5.2
		c6.7,0,13.3-0.1,20,0.1c3.6,0.1,4.5-2.1,3.1-4.3c-2.2-3.6-1.4-7.2-1.1-10.6c1.6-16.5,0.7-33,1.3-49.4c0.1-4.1-2.6-7.9-0.5-12.2
		c1.1-2.4,2.1-3.4,4.7-3.1c7.8,0.8,13.7-1.3,18.8-8.2c4.4-5.8,12.4-6.5,19.7-5.9c7.4,0.6,9.4-0.4,11.2-7.6c0.6-2.5,2-4.3,3.6-5.8
		c2.4-2.1,5.5-3.4,8.8-2.3c3.2,1.1,4.1,3.7,4.4,7.1c0.6,7.5-0.2,15-0.3,22.5c0,3.2-2,5.7-5,5.9c-4.8,0.3-9.7,1.2-14.3-0.6
		c-2.3-0.9-4.1-0.5-5.3,1.3c-1.2,1.7-0.9,3.7,1,5.3c3,2.7,4.3,5.4,3.3,10.1c-0.8,3.5,0,7.6-0.8,11.5c-0.5,3,2.2,4.7,5.2,4.8
		c11.5,0.1,23,0.2,34.5-0.1c3.9-0.1,6.4-3.3,9-5.7c2.9-2.7,5.9-4.2,9.8-2.1c2.3,1.2,4.9,0.7,7.4,0.7c2.7,0,5.3,0,7.2,2.4
		c1.5,1.9,3.6,1.2,5.6,0.8c3.3-0.7,5.8,0.5,7.7,3.2c1.8,2.5,1.4,4.6,0.2,7.3c-3.2,7.2-9.4,12.2-13,19.1c-2.3,4.4-7.7,2.5-11.4,1
		c-5.4-2.1-10.8-1.1-16.2-1c-2.6,0-4.5,2.2-4.9,4.9c-0.5,2.8,2,3.4,3.8,4.5c2.5,1.4,5.2,1.1,7.8,0.5c3.2-0.8,6.1-0.3,9.3,0
		c5.7,0.5,8.2,3.6,9.5,8.4c0.8,2.9,2.8,4.4,5.5,4.1c8.1-0.9,16.1,0.3,24.1-0.1c18-0.8,35.9-0.9,53.9-0.8c4.3,0,8.6,0,12.8-0.3
		c2.8-0.2,5.4-1.4,5.9-4.5c0.5-3.2-1.2-5-4.3-6.3c-5.7-2.5-11.9-4-16.9-8.1c-1.9-1.5-4.7-1.2-6.7-0.2c-3.9,2-7.2,0.1-10.5-1.1
		c-2-0.8-3.5-2.5-3.3-5.1c0.3-2.5,1-4.3,3.6-5.5c3.9-1.8,7.7-2.1,11.6-0.6c4.4,1.6,8.5,0.2,12.6-0.9c0.9-0.3,1.4-0.8,1.4-1.7
		c-0.1-5.1,3.8-7,7.5-8.9c1.8-0.9,4.1-1.8,4.5-3.6c1.7-6.5,7.2-7.6,12.3-9.2c3.8-1.1,7.1-2.8,9.2-6.3c3.5-5.8,9.9-9.2,12.5-15.9
		c1.5-3.9,9.1-4.5,12.3-1.6c1.8,1.7,3.3,3.7,4.7,5.8c2.5,3.7,1.1,6.6-2.5,8.6c-3.1,1.6-6.3,2.9-9.4,4.4c-2.3,1.2-4.2,2.8-4,5.8
		c0.2,3.2,2.6,5,5.1,6.3c1.9,1,4.1,1.2,6.1,1.9c4.1,1.4,6.2,5.4,4.4,9c-0.8,1.6-1.7,3-0.3,4.4c1.6,1.6,3.7,1.4,5.6,0.6
		c2.7-1.1,4.3-3.5,5.6-5.9c5-9.5,14-10.8,21.5-3.2c4,4.1,7.9,8.7,14.8,7.9c2.1-0.2,3.1-0.7,3.8-2.9c2.6-8,1.4-16.2,1.5-24.3
		c0-6.4,0.6-7.2,7.1-7.1c5,0,9.3,1.4,11,6.5c1.1,3.4,4.2,4.1,6.6,5.6c5.5,3.3,8.4,8.1,7,14.5c-1.1,5.1-4.5,8.6-10,9.8
		c-3.9,0.8-5.5,2.9-5.4,7.3c0.4,12.3,0.2,24.6,0.3,37c0,3.7-1.8,6.6-4.1,9.4c-1.9,2.3-3.5,2.3-5.7,0c-4.7-5-6.1-11.2-6.6-17.7
		c-0.3-4,0.1-8-0.6-11.9c-0.8-4.4-3.4-6.8-8.5-6.4c-3.5,0.3-6.9,0.7-10.2,2c-2.4,0.9-2.3,3-2.2,5c0.2,2.2,2,1.9,3.4,2
		c1.5,0.1,3,0,4.5,0c2.3,0,4.3,1.4,4.4,3.3c0.1,7.2,2.7,15-4.6,20.8c-2.8,2.2-5.1,5.2-7.7,7.8c-2.3,2.3-3.6,4.9-3.6,8.4
		c0.1,38,0,76,0.1,114c0,5.3-1.8,10.5-0.1,15.8c1,3.1,1.9,5.2,5.5,6.7c10.8,4.4,13.9,16.9,8.5,25.6c-2,3.2-4.7,4.5-8.7,4.5
		c-26.5-0.2-53-0.2-79.5,0c-4.3,0-5.2-1.3-5.2-5.3c0.1-33.3-0.1-66.7,0.2-100c0-5.3-1.6-6.1-6.4-6.1
		C488.7,213.1,441.6,213,394.4,213z"/>
	<path class="st0" d="M305.6,280.3c8.6,5.8,10.7,15.6,14.8,24.2c4.5,9.3,4.1,8.7-6.1,9.6c-9.5,0.8-15.2-1.7-17.7-11.4
		c-1.3-4.9-4.3-9.3-6.5-14c-0.7-1.5-1.7-2.9-3-3.9c-1.5-1.1-3.1-2.2-5-1.3c-1.8,0.8-1,2.7-1,4c-0.1,7.3-0.2,14.7,0,22
		c0.1,3.2-0.8,4.6-4.2,4.4c-4-0.2-8-0.2-12,0c-3.2,0.2-3.9-1.2-3.9-4.1c0.1-23.3,0-46.6,0.1-69.9c0-1.6-0.4-3.6,2.2-3.6
		c13.1,0.2,26.3-0.8,39.4,0.5c9.2,0.9,14.2,6.6,16,15.3c2.2,10.6-1.6,20.5-9.5,25.5C308,278.4,306.6,278.9,305.6,280.3z
		 M288.9,254.4c-2.1,0-3.7,0-5.4,0c-2.5-0.1-2.7,1.7-2.3,3.3c0.5,2.5-2,6.4,1.9,7.1c4.1,0.8,8.6,0.8,12.7-0.9c2-0.8,3.3-2.1,3.4-4.4
		c0.1-2.4-1.5-3.5-3.3-4.5C293.4,253.9,290.9,254.5,288.9,254.4z"/>
	<path class="st0" d="M460.1,276.3c0.3,2.9,0.6,6.4,1.1,9.8c1,6.7,5.1,11,10.6,11.4c6,0.4,10.4-2.5,12.2-9.5
		c1.1-4.4,3.1-4.7,6.6-3.3c2.6,1,5.2,2.3,7.9,2.9c4.3,0.9,4.7,2.9,3.3,6.7c-5.8,16.3-15.3,22.6-32.7,21.3c-13.9-1-25.3-12-27.7-27.1
		c-2.3-14.2-2.4-28.3,5.5-41.1c7.1-11.4,18.5-14.1,30.9-12.8c11.9,1.2,19.4,8.5,23.2,19.8c1.1,3.3,0.6,5.1-3,5.5
		c-1.5,0.2-2.9,0.8-4.3,1.2c-4.9,1.5-8.7,3-12-3.8c-3.7-7.5-14.3-6.1-18.5,1.8C460.3,264.3,460.4,270,460.1,276.3z"/>
	<path class="st0" d="M377.1,284.1c0-8.5-0.1-17,0.1-25.5c0.1-3.3-1.1-4.4-4.3-4.3c-4.2,0.2-8.3,0-12.5,0.1
		c-2.4,0.1-3.7-0.5-3.6-3.3c0.2-3.8,0.2-7.7,0-11.5c-0.1-2.8,1.1-3.4,3.6-3.3c17.8,0.1,35.6,0.1,53.4,0c2.9,0,4,0.8,4,3.9
		c0.2,14.2,0.3,14.2-13.7,14.2c-6.9,0-6.9,0-6.9,7.1c0,15.8-0.1,31.6,0.1,47.4c0.1,4-1.2,5.5-5.1,5.1c-4.8-0.5-10.8,2-14-1
		s-0.9-9.1-1.1-13.9C377,294.1,377.1,289.1,377.1,284.1z"/>
	<path class="st0" d="M329.7,302.4c0-10.3,0-10.3,10.4-10.3c8.9,0,8.9,0,8.9,9c0,12.8,0,12.8-10.6,12.8c-8.7,0-8.7,0-8.7-8.5
		C329.7,304.4,329.7,303.4,329.7,302.4z"/>
	<path class="st0" d="M430.1,303c0,11,0,11-10,11c-9.3,0-9.3,0-9.3-9.4c0-12.4,0-12.4,12.3-12.4c7.1,0,7.1,0,7.1,6.9
		C430.1,300.3,430.1,301.6,430.1,303z"/>
	<path class="st0" d="M513.3,302.8c0-10.6,0-10.6,10.6-10.6c8.8,0,8.8,0,8.8,9.1c0,12.7,0,12.8-11.3,12.7c-9.5-0.1-8,1.2-8.1-8.2
		C513.2,304.7,513.3,303.7,513.3,302.8z"/>
</g>
</svg>
