<?xml version="1.0" encoding="UTF-8" standalone="no"?>
<svg width="270px" height="270px" viewBox="0 0 270 270" version="1.1" xmlns="http://www.w3.org/2000/svg" xmlns:xlink="http://www.w3.org/1999/xlink">
    <!-- Generator: Sketch 46.2 (44496) - http://www.bohemiancoding.com/sketch -->
    <title>logo</title>
    <desc>Created with Sketch.</desc>
    <defs>
        <polygon id="path-1" points="269.428 270.2395 269.428 0.811 0.0004 0.811 0.0004 270.2395 269.428 270.2395"></polygon>
        <polygon id="path-3" points="0 337.189 269.428 337.189 269.428 1 0 1"></polygon>
    </defs>
    <g id="Symbols" stroke="none" stroke-width="1" fill="none" fill-rule="evenodd">
        <g id="Artboard" transform="translate(0.000000, -2.000000)">
            <g id="logo" transform="translate(0.000000, 1.000000)">
                <g id="Group-3" transform="translate(0.000000, 0.189000)">
                    <mask id="mask-2" fill="white">
                        <use xlink:href="#path-1"></use>
                    </mask>
                    <g id="Clip-2"></g>
                    <path d="M78.1504,0.8105 C34.9904,0.8105 0.0004,35.7975 0.0004,78.9595 L0.0004,192.0875 L0.0004,270.2395 L191.2804,270.2395 C234.4414,270.2395 269.4284,235.2515 269.4284,192.0875 L269.4284,0.8105 L191.2804,0.8105 L78.1504,0.8105 Z" id="Fill-1" fill="#00853F" mask="url(#mask-2)"></path>
                </g>
                <path d="M104.4829,204.9771 L102.6989,204.9771 C98.1989,204.9771 97.2289,205.9821 97.2289,208.0381 C97.2289,210.3681 98.1589,211.2971 99.9019,211.2971 C101.8059,211.2971 103.8999,209.8251 104.4829,208.8911 L104.4829,204.9771 Z M107.3919,214.7891 C106.4989,214.0141 105.7239,212.8501 105.3769,211.8401 C104.5589,212.9651 102.1929,214.4021 99.7509,214.4021 C95.4049,214.4021 92.8829,212.1521 92.8829,208.0011 C92.8829,202.8771 96.9179,201.8731 102.2329,201.8731 L104.4829,201.8731 L104.4829,201.4811 C104.4829,198.6131 103.5129,197.2551 100.9919,197.2551 C98.3139,197.2551 96.9579,198.4561 96.3349,199.8891 L93.1149,197.6391 C94.0479,195.7791 96.6459,194.1881 101.0309,194.1881 C106.3069,194.1881 108.9439,196.4781 108.9439,201.1701 L108.9439,206.9531 C108.9439,209.9771 109.5269,211.4161 110.6519,212.5791 L107.3919,214.7891 Z" id="Fill-4" fill="#FEFEFE"></path>
                <path d="M116.2778,215.3716 C113.9518,213.2766 113.2138,210.5626 113.2138,205.9466 L113.2138,190.6996 C113.2138,188.6416 114.8818,187.3206 117.7148,187.3206 L117.7148,205.9026 C117.7148,209.1236 117.9098,210.6396 119.8848,213.0456 L116.2778,215.3716 Z" id="Fill-6" fill="#FEFEFE"></path>
                <mask id="mask-4" fill="white">
                    <use xlink:href="#path-3"></use>
                </mask>
                <g id="Clip-9"></g>
                <path d="M123.38,191.822 L128.304,191.822 L128.304,187.827 L123.38,187.827 L123.38,191.822 Z M125.862,215.179 C123.963,212.929 123.536,210.211 123.536,205.711 L123.536,197.718 L121.908,197.718 L121.908,194.615 L128.113,194.615 L128.113,205.711 C128.113,208.931 128.229,211.221 129.545,213.122 L125.862,215.179 Z" id="Fill-8" fill="#FEFEFE" mask="url(#mask-4)"></path>
                <path d="M156.2007,210.9468 L156.2007,202.8778 C156.2007,198.8438 155.1907,197.4878 152.8637,197.4878 C149.8757,197.4878 148.8297,198.9208 148.8297,202.8778 L148.8297,214.0138 L144.2927,214.0138 L144.2927,202.8428 C144.2927,198.6878 143.2837,197.4878 140.9567,197.4878 C138.2757,197.4878 137.2707,198.8838 137.2707,202.8778 L137.2707,214.0508 L132.7297,214.0508 L132.7297,194.6148 L137.1907,194.6148 C137.1907,194.6148 136.8797,195.9748 136.3767,196.5178 L136.4927,196.5928 C137.5017,195.4318 139.1297,194.1878 141.4607,194.1878 C144.5247,194.1878 146.6957,195.6238 147.4727,197.0598 C148.2877,195.6238 150.3827,194.1878 153.2157,194.1878 C157.9867,194.1878 160.6617,196.3618 160.6617,202.1798 L160.6617,214.4018 C158.1387,214.4018 156.2007,213.0808 156.2007,210.9468" id="Fill-10" fill="#FEFEFE" mask="url(#mask-4)"></path>
                <path d="M172.4604,197.2554 C169.8614,197.2554 168.4254,198.9994 168.4254,201.7524 L175.2534,201.7524 C175.9114,201.7524 176.1064,201.2854 176.1064,200.7824 C176.1064,198.9204 175.1374,197.2554 172.4604,197.2554 M178.0104,204.6654 L168.3104,204.6654 C168.4654,209.3984 169.9384,211.1824 174.5154,211.1824 C175.6044,211.1824 178.0854,210.6794 179.0954,209.9774 L180.1814,212.7344 C179.2474,213.3564 176.5334,214.4014 172.8864,214.4014 C168.6964,214.4014 163.8094,212.5024 163.8094,203.8114 C163.8094,196.7134 168.1134,194.1884 172.5364,194.1884 C176.8844,194.1884 180.5674,196.7894 180.5674,202.2204 C180.5674,203.8114 179.5584,204.6654 178.0104,204.6654" id="Fill-11" fill="#FEFEFE" mask="url(#mask-4)"></path>
                <path d="M195.0405,211.1421 L195.0405,202.6061 C195.0405,198.7681 193.9945,197.4481 191.5885,197.4481 C188.9905,197.4481 187.8615,198.9631 187.8615,202.8021 L187.8615,214.0141 L183.3645,214.0141 L183.3645,194.6151 L187.8255,194.6151 C187.8255,194.6151 187.7105,195.6631 187.0115,196.5181 L187.1275,196.6331 C188.0975,195.3921 189.8015,194.1881 191.9765,194.1881 C195.6625,194.1881 199.5415,196.0901 199.5415,201.9491 L199.5415,214.4021 C196.5925,214.4021 195.0405,212.9291 195.0405,211.1421" id="Fill-12" fill="#FEFEFE" mask="url(#mask-4)"></path>
                <path d="M209.0493,214.4019 C206.4473,214.4019 204.5883,212.5389 204.5883,209.4739 L204.5883,197.6819 L201.7943,197.6819 L201.7943,194.6149 L204.7043,194.6149 L204.9003,193.6079 C205.3263,191.7459 206.6433,190.6209 209.0103,190.6209 L209.0103,194.6149 L214.0533,194.6149 L212.5013,197.6819 L209.0103,197.6819 L209.0103,209.4739 C209.0103,210.5629 209.5133,211.0259 210.2503,211.0259 C211.1813,211.0259 212.3463,210.6789 213.0443,210.3289 L214.2083,212.8499 C213.0443,213.7799 211.1443,214.4019 209.0493,214.4019" id="Fill-13" fill="#FEFEFE" mask="url(#mask-4)"></path>
                <path d="M227.2046,203.811 C227.2046,199.195 226.6626,197.332 223.3656,197.332 C220.1826,197.332 219.7196,199.231 219.7196,203.811 L219.7196,204.818 C219.7196,209.203 220.3376,211.221 223.3656,211.221 C226.6626,211.221 227.2046,209.434 227.2046,204.818 L227.2046,203.811 Z M223.3656,214.402 C219.0206,214.402 215.0626,211.959 215.0626,204.857 L215.0626,203.772 C215.0626,196.713 218.9806,194.188 223.4026,194.188 C227.9036,194.188 231.8616,196.669 231.8616,203.772 L231.8616,204.857 C231.8616,211.959 227.9036,214.402 223.3656,214.402 L223.3656,214.402 Z" id="Fill-14" fill="#FEFEFE" mask="url(#mask-4)"></path>
                <path d="M246.645,199.0786 C245.751,197.9506 244.2,197.2166 241.717,197.2166 C239.818,197.2166 238.653,198.0656 238.653,199.4666 C238.653,203.0736 248.856,202.2996 248.856,208.7756 C248.856,211.9956 246.414,214.4016 240.864,214.4016 C237.216,214.4016 235.085,213.0456 233.805,211.5686 L235.784,209.0866 C236.753,210.2116 238.457,211.5326 241.099,211.5326 C243.541,211.5326 244.666,210.6396 244.666,208.9316 C244.666,205.4396 234.307,206.0216 234.307,199.4266 C234.307,196.1706 237.452,194.1876 241.873,194.1876 C245.715,194.1876 247.77,195.3516 248.972,196.8286 L246.645,199.0786 Z" id="Fill-15" fill="#FEFEFE" mask="url(#mask-4)"></path>
                <path d="M102.4497,95.0029 C99.0987,95.0029 96.3857,97.7179 96.3857,101.0669 L96.3857,109.8439 L96.3857,115.9079 L111.2237,115.9079 C114.5737,115.9079 117.2877,113.1929 117.2877,109.8439 L117.2877,95.0029 L111.2237,95.0029 L102.4497,95.0029 Z" id="Fill-16" fill="#FEFEFE" mask="url(#mask-4)"></path>
                <path d="M149.771,144.3394 C152.191,135.7134 155.672,126.8384 157.339,118.6654 C158.852,126.8384 162.184,135.8634 164.45,144.3394 L149.771,144.3394 Z M168.385,95.0034 L147.802,95.0034 L117.841,176.5744 L134.448,176.5744 L134.456,176.5684 C137.208,176.5174 139.56,174.8234 140.559,172.4174 L140.566,172.4134 L140.584,172.3524 C140.682,172.1134 140.762,171.8674 140.83,171.6174 L144.929,159.3194 L168.99,159.3194 L173.694,172.3994 L173.708,172.4064 C174.707,174.7984 177.037,176.4874 179.772,176.5644 L179.787,176.5744 L179.96,176.5744 L196.535,176.5744 L168.385,95.0034 Z" id="Fill-17" fill="#FEFEFE" mask="url(#mask-4)"></path>
                <path d="M244.438,160.23 L222.024,160.23 L222.024,95.003 L216.05,95.003 L207.411,95.003 C204.115,95.003 201.44,97.677 201.44,100.973 L201.44,176.575 L249.177,176.575 L249.177,171.832 L249.177,164.97 C249.177,162.351 247.054,160.23 244.438,160.23" id="Fill-18" fill="#FEFEFE" mask="url(#mask-4)"></path>
                <path d="M98.3105,121.5293 C94.9415,121.5293 92.2105,124.2623 92.2105,127.6313 L92.2105,170.4743 L92.2105,176.5743 L107.1455,176.5743 C110.5145,176.5743 113.2465,173.8423 113.2465,170.4743 L113.2465,121.5293 L107.1455,121.5293 L98.3105,121.5293 Z" id="Fill-19" fill="#FEFEFE" mask="url(#mask-4)"></path>
                <path d="M81.0776,163.4898 C78.3526,159.5898 73.4796,160.7128 72.0576,161.1448 L72.0146,161.1348 C71.9206,161.1758 71.8336,161.2088 71.7426,161.2488 C71.6886,161.2658 71.6526,161.2788 71.6526,161.2788 L71.6526,161.2848 C68.6166,162.5968 65.7156,163.1048 62.3216,163.1048 C55.2116,163.1048 50.3676,160.5318 46.8866,155.8428 C43.8586,151.7548 42.9506,145.2478 42.9506,133.5938 C42.9506,124.3618 44.4666,117.8548 48.5506,113.7698 C51.4236,110.8938 56.8756,108.7748 61.7176,108.7748 C64.0576,108.7748 66.5796,109.2368 69.0876,110.0818 C69.0906,110.0818 69.0906,110.0818 69.0906,110.0838 L69.0946,110.0848 C69.0946,110.0848 69.1846,110.1178 69.3406,110.1718 C69.4416,110.2058 69.5466,110.2408 69.6556,110.2808 L69.6776,110.2738 C71.2976,110.7328 75.8926,111.6208 78.5126,107.8778 L84.1166,99.8458 C79.5726,96.3648 70.0426,93.4908 61.2616,93.4908 C46.8866,93.4908 33.7206,100.1498 26.7596,111.4998 C22.2186,118.9148 20.2536,127.2368 20.2536,138.1348 C20.2536,150.9988 24.3356,161.2888 32.8126,169.1578 C39.9256,175.8148 49.4626,177.9388 61.1126,177.9388 C71.5546,177.9388 79.1196,175.3628 86.0816,169.9178 L81.0776,163.4898 Z" id="Fill-20" fill="#FEFEFE" mask="url(#mask-4)"></path>
            </g>
        </g>
    </g>
</svg>