<?xml version="1.0" encoding="iso-8859-1"?>
<!-- Generator: Adobe Illustrator 23.1.1, SVG Export Plug-In . SVG Version: 6.00 Build 0)  -->
<svg version="1.1" id="Layer_1_1_" xmlns="http://www.w3.org/2000/svg" xmlns:xlink="http://www.w3.org/1999/xlink" x="0px" y="0px"
	 viewBox="0 0 64 64" style="enable-background:new 0 0 64 64;" xml:space="preserve">
<path d="M20.674,14.77l-0.089,4.52L18,23l2.584,3.71l0.089,4.52l4.273,1.479l2.726,3.609L32,35l4.327,1.318l2.726-3.609l4.273-1.479
	l0.089-4.52L46,23l-2.584-3.71l-0.089-4.52l-4.273-1.479l-2.726-3.609L32,11l-4.327-1.318l-2.726,3.609L20.674,14.77z M32,15
	c4.418,0,8,3.582,8,8s-3.582,8-8,8s-8-3.582-8-8S27.582,15,32,15z"/>
<path d="M44.391,18l0.019,0.968l2.411,3.46c0.239,0.344,0.24,0.8,0,1.143l-2.411,3.461L44.391,28H61l-3-5l3-5H44.391z"/>
<path d="M31,27c0.015,0,0.03,0,0.045-0.001c0.281-0.013,0.543-0.143,0.723-0.359l5-6l-1.536-1.28l-4.299,5.159l-2.226-2.226
	l-1.414,1.414l3,3C30.481,26.895,30.735,27,31,27z"/>
<path d="M30.397,43.927l0.152-1.994c-0.629-0.048-1.264-0.128-1.885-0.238l-0.348,1.97C29.003,43.786,29.703,43.875,30.397,43.927z"
	/>
<path d="M32.494,43.983c0.697-0.016,1.401-0.067,2.093-0.152l-0.244-1.985c-0.625,0.077-1.263,0.123-1.893,0.137L32.494,43.983z"/>
<path d="M26.27,43.196l0.544-1.924c-0.604-0.171-1.21-0.375-1.799-0.608l-0.733,1.861C24.933,42.781,25.602,43.007,26.27,43.196z"/>
<path d="M36.212,41.522l0.441,1.95c0.68-0.154,1.36-0.344,2.022-0.567l-0.637-1.896C37.442,41.21,36.827,41.382,36.212,41.522z"/>
<path d="M22.37,41.656l0.918-1.776c-0.561-0.29-1.113-0.612-1.641-0.955L20.556,40.6C21.14,40.98,21.75,41.335,22.37,41.656z"/>
<path d="M40.63,42.138c0.634-0.286,1.262-0.609,1.866-0.958l-1-1.731c-0.547,0.316-1.116,0.608-1.689,0.867L40.63,42.138z"/>
<path d="M20.11,37.81c-0.491-0.395-0.969-0.82-1.419-1.262l-1.402,1.427c0.497,0.489,1.025,0.958,1.568,1.394L20.11,37.81z"/>
<path d="M44.259,40.04c0.565-0.407,1.117-0.847,1.64-1.309l-1.324-1.499c-0.473,0.418-0.972,0.816-1.484,1.185L44.259,40.04z"/>
<path d="M17.402,35.151c-0.404-0.485-0.788-0.995-1.142-1.517l-1.656,1.121c0.39,0.577,0.815,1.141,1.262,1.677L17.402,35.151z"/>
<path d="M45.934,35.906l1.467,1.36c0.475-0.513,0.929-1.053,1.348-1.607l-1.593-1.208C46.776,34.952,46.365,35.442,45.934,35.906z"
	/>
<path d="M12.611,31.068c0.27,0.646,0.574,1.282,0.905,1.894l1.759-0.951c-0.299-0.553-0.575-1.129-0.818-1.713L12.611,31.068z"/>
<path d="M50.936,32.081l-1.802-0.867c-0.274,0.57-0.579,1.131-0.907,1.668l1.706,1.043C50.295,33.331,50.633,32.71,50.936,32.081z"
	/>
<path d="M13.55,14.198l1.815,0.84c0.263-0.57,0.561-1.135,0.883-1.68l-1.722-1.018C14.171,12.942,13.843,13.567,13.55,14.198z"/>
<path d="M49.208,13.757c0.308,0.552,0.592,1.124,0.843,1.702l1.834-0.797c-0.277-0.638-0.591-1.271-0.931-1.88L49.208,13.757z"/>
<path d="M18.495,10.302l-1.484-1.34c-0.468,0.518-0.914,1.066-1.326,1.627l1.611,1.185C17.669,11.266,18.072,10.771,18.495,10.302z"
	/>
<path d="M47.035,10.647c0.412,0.48,0.803,0.985,1.164,1.501l1.64-1.146c-0.398-0.57-0.831-1.128-1.285-1.658L47.035,10.647z"/>
<path d="M21.303,7.75l-1.191-1.607c-0.56,0.415-1.105,0.863-1.621,1.332l1.345,1.48C20.303,8.532,20.797,8.126,21.303,7.75z"/>
<path d="M47.109,7.822c-0.506-0.483-1.04-0.944-1.588-1.371l-1.23,1.577c0.496,0.386,0.979,0.804,1.437,1.241L47.109,7.822z"/>
<path d="M24.561,5.804l-0.85-1.81c-0.629,0.295-1.253,0.626-1.852,0.985l1.026,1.717C23.427,6.371,23.991,6.072,24.561,5.804z"/>
<path d="M43.805,5.244c-0.591-0.373-1.206-0.719-1.829-1.03l-0.891,1.79c0.562,0.28,1.119,0.593,1.653,0.93L43.805,5.244z"/>
<path d="M27.667,2.604c-0.68,0.164-1.357,0.365-2.013,0.595l0.664,1.886c0.592-0.208,1.205-0.389,1.819-0.538L27.667,2.604z"/>
<path d="M37.538,4.662c0.607,0.161,1.214,0.357,1.805,0.581l0.708-1.871c-0.654-0.247-1.327-0.464-1.999-0.643L37.538,4.662z"/>
<path d="M31.82,2.032c-0.698,0.026-1.402,0.087-2.091,0.182l0.274,1.981c0.623-0.086,1.259-0.141,1.891-0.164L31.82,2.032z"/>
<path d="M33.917,2.058l-0.125,1.996c0.634,0.04,1.27,0.11,1.889,0.211l0.319-1.974C35.317,2.18,34.616,2.102,33.917,2.058z"/>
<path d="M55.905,51.19l5.753-8.219c0.608-0.868,0.382-2.067-0.5-2.654c-0.795-0.53-1.86-0.383-2.482,0.342l-1.854,2.163l0.156-1.375
	c0.155-0.932-0.564-1.781-1.509-1.781c-0.702,0-1.314,0.478-1.484,1.159l-0.684,2.735c-0.018,0.071-0.043,0.139-0.076,0.205
	l-1.753,3.505L47,49l1.8-2.289C49.423,45.465,48.517,44,47.124,44c-0.608,0-1.178,0.295-1.529,0.791c0,0-4.884,5.119-4.885,5.12
	c-2.658,3.741-1.367,7.856-1.583,12.089H48c-0.078-0.722-0.158-1.444-0.21-2.168c-0.152-2.114,2.417-3.578,3.833-4.817
	c1.32-1.155,2.641-2.311,3.961-3.466C55.705,51.443,55.813,51.322,55.905,51.19z"/>
<path d="M24.872,62c-0.216-4.233,1.075-8.348-1.583-12.089c-0.001-0.002-4.885-5.12-4.885-5.12C18.053,44.295,17.483,44,16.876,44
	c-1.393,0-2.298,1.465-1.675,2.711L17,49l-4.474-1.73l-1.753-3.505c-0.033-0.065-0.058-0.134-0.076-0.205l-0.684-2.735
	c-0.17-0.681-0.782-1.159-1.484-1.159c-0.945,0-1.664,0.849-1.509,1.781l0.156,1.375L5.323,40.66
	c-0.622-0.725-1.687-0.872-2.482-0.342c-0.882,0.588-1.107,1.786-0.5,2.654l5.753,8.219c0.092,0.132,0.2,0.252,0.321,0.358
	c1.32,1.155,2.641,2.311,3.961,3.466c1.416,1.239,3.985,2.703,3.833,4.817C16.158,60.556,16.078,61.278,16,62H24.872z"/>
<path d="M19.609,28l-0.019-0.968l-2.411-3.46c-0.239-0.344-0.24-0.8,0-1.143l2.411-3.461L19.609,18H3l3,5l-3,5H19.609z"/>
</svg>
